<?xml version="1.0" encoding="UTF-8"?>
<!DOCTYPE svg PUBLIC "-//W3C//DTD SVG 1.1//EN" "http://www.w3.org/Graphics/SVG/1.1/DTD/svg11.dtd">
<!-- Creator: CorelDRAW -->
<svg xmlns="http://www.w3.org/2000/svg" xml:space="preserve" width="215px" height="60px" version="1.1" style="shape-rendering:geometricPrecision; text-rendering:geometricPrecision; image-rendering:optimizeQuality; fill-rule:evenodd; clip-rule:evenodd"
viewBox="0 0 213.33 59.6"
 xmlns:xlink="http://www.w3.org/1999/xlink"
 xmlns:xodm="http://www.corel.com/coreldraw/odm/2003">
 <defs>
  <style type="text/css">
   <![CDATA[
    .fil0 {fill:black}
   ]]>
  </style>
 </defs>
 <g id="Layer_x0020_1">
  <metadata id="CorelCorpID_0Corel-Layer"/>
  <path class="fil0" d="M193.56 0c11.58,4.61 19.77,15.93 19.77,29.16 0,13.48 -8.5,24.97 -20.43,29.41l9.16 -25.58c2.16,-6.02 3.28,-10.44 3.28,-13.27 0,-6.1 -2.33,-11.43 -6.99,-15.99 -1.51,-1.48 -3.11,-2.73 -4.79,-3.73zm-19.22 59.6c-13.65,-3.4 -23.76,-15.74 -23.76,-30.44 0,-12.93 7.81,-24.03 18.98,-28.83 -1.48,0.93 -2.88,2.06 -4.19,3.37 -4.53,4.55 -6.8,10.12 -6.8,16.74 0,5.31 1.4,9.74 4.2,13.3 2.79,3.56 7.79,6.96 14.16,9.73l6.35 -17.89c-6.69,0.94 -9.32,-6.05 -5.45,-10.03 1.15,-1.18 2.55,-1.76 4.2,-1.76 1.64,0 3.05,0.58 4.24,1.75 1.19,1.16 1.79,2.55 1.79,4.16 0,0.78 -0.15,1.66 -0.49,2.61l-13.23 37.29z"/>
  <path class="fil0" d="M0.28 45.97c-0.19,-0.13 -0.28,-0.34 -0.28,-0.57l0 -33.67c0,-0.52 0.24,-0.94 0.78,-1.02l0.02 0 11.59 0c1.58,0.03 3.15,0.26 4.67,0.71 1.47,0.43 2.88,1.03 4.2,1.81 1.31,0.77 2.51,1.7 3.58,2.77 1.06,1.07 1.99,2.26 2.75,3.57 0.78,1.33 1.37,2.75 1.78,4.23 0.43,1.55 0.63,3.14 0.63,4.74 0,1.61 -0.2,3.21 -0.65,4.76 -0.42,1.48 -1.02,2.9 -1.81,4.23 -0.78,1.31 -1.71,2.5 -2.8,3.56 -1.09,1.07 -2.32,1.99 -3.64,2.75 -1.35,0.78 -2.8,1.36 -4.3,1.77 -1.55,0.42 -3.14,0.62 -4.75,0.62l-10.99 0c-0.12,0 -0.24,-0.01 -0.36,-0.03 -0.11,-0.03 -0.21,-0.07 -0.31,-0.13l-0.03 -0.02 -0.08 -0.08zm36.04 -10.97c0.04,1.24 0.3,2.43 0.81,3.56 0.53,1.2 1.26,2.27 2.2,3.19 0.94,0.92 2.03,1.62 3.24,2.13 1.25,0.53 2.57,0.78 3.93,0.78 1.33,0 2.66,-0.21 3.9,-0.7 1.18,-0.46 2.24,-1.12 3.17,-1.98 0.19,-0.19 0.42,-0.31 0.69,-0.31 0.25,0 0.47,0.12 0.66,0.28 0.23,0.2 0.36,0.46 0.36,0.76 0,0.37 -0.24,0.66 -0.51,0.89l-0.59 0.48 0 -0.02c-0.95,0.78 -1.99,1.4 -3.14,1.85 -1.43,0.56 -2.94,0.81 -4.47,0.81 -1.66,0 -3.27,-0.31 -4.8,-0.97 -1.46,-0.63 -2.77,-1.5 -3.91,-2.62 -1.13,-1.12 -2.01,-2.44 -2.64,-3.9 -0.67,-1.53 -0.99,-3.14 -0.99,-4.8 0,-1.65 0.3,-3.26 0.92,-4.79 0.59,-1.44 1.41,-2.77 2.47,-3.91 1.03,-1.12 2.25,-2 3.63,-2.64 1.4,-0.65 2.88,-0.97 4.43,-0.97 1.47,0 2.88,0.29 4.22,0.91 1.32,0.6 2.49,1.43 3.5,2.47 1.04,1.07 1.86,2.31 2.47,3.67 0.64,1.41 1,2.9 1.11,4.44 0.03,0.08 0.05,0.16 0.05,0.24 0,0.04 0,0.08 0,0.11 0,0.64 -0.37,1.04 -1.01,1.04l-19.7 0zm25.66 5.77c0.16,0.18 0.25,0.39 0.32,0.61 0.17,0.54 0.46,1 0.85,1.4 0.42,0.44 0.9,0.8 1.43,1.09 0.54,0.29 1.11,0.52 1.71,0.67 0.55,0.14 1.12,0.24 1.68,0.24 0.64,0 1.3,-0.12 1.92,-0.26 0.72,-0.17 1.4,-0.45 2.04,-0.83 0.62,-0.38 1.15,-0.87 1.57,-1.47 0.46,-0.65 0.63,-1.41 0.63,-2.2 0,-0.72 -0.18,-1.39 -0.6,-1.98 -0.43,-0.61 -0.97,-1.12 -1.58,-1.53 -0.66,-0.44 -1.36,-0.8 -2.1,-1.06 -0.7,-0.25 -1.41,-0.46 -2.14,-0.59 -0.79,-0.15 -1.57,-0.4 -2.32,-0.7 -0.79,-0.32 -1.53,-0.74 -2.21,-1.26 -0.66,-0.51 -1.21,-1.12 -1.66,-1.82 -0.46,-0.74 -0.68,-1.56 -0.68,-2.43 0,-0.93 0.16,-1.85 0.52,-2.71 0.33,-0.79 0.81,-1.5 1.45,-2.08 0.66,-0.6 1.43,-1.03 2.27,-1.31 0.93,-0.33 1.92,-0.45 2.91,-0.45 0.73,0 1.46,0.07 2.17,0.21 0.71,0.15 1.39,0.38 2.04,0.7 0.65,0.33 1.24,0.76 1.75,1.28 0.56,0.57 1.01,1.23 1.37,1.93 0.1,0.19 0.21,0.44 0.21,0.66 0,0.21 -0.11,0.41 -0.23,0.58 -0.2,0.28 -0.52,0.39 -0.86,0.39 -0.21,0 -0.41,-0.08 -0.57,-0.23 -0.12,-0.11 -0.23,-0.24 -0.32,-0.39l-0.01 -0.01 0 -0.01c-0.52,-0.97 -1.27,-1.71 -2.24,-2.23 -1.03,-0.56 -2.15,-0.8 -3.31,-0.8 -0.69,0 -1.37,0.08 -2.03,0.29 -0.57,0.19 -1.1,0.47 -1.56,0.86 -0.44,0.38 -0.78,0.83 -1.02,1.35 -0.26,0.59 -0.36,1.24 -0.36,1.88 0,0.45 0.09,0.88 0.3,1.28 0.22,0.39 0.51,0.73 0.84,1.03 0.36,0.32 0.76,0.6 1.19,0.83 0.43,0.24 0.87,0.44 1.33,0.61 0.41,0.16 0.83,0.3 1.26,0.41 0.32,0.09 0.65,0.17 0.97,0.23l0.01 0 0.01 0.01c1.92,0.48 3.93,1.28 5.38,2.66 1.23,1.17 1.9,2.6 1.9,4.31 0,1.06 -0.22,2.08 -0.75,3.01 -0.49,0.86 -1.12,1.58 -1.92,2.15 -0.8,0.58 -1.68,0.99 -2.63,1.27 -0.95,0.28 -1.93,0.43 -2.92,0.43 -1.69,0 -3.38,-0.33 -4.82,-1.24 -1.33,-0.83 -2.25,-2 -2.77,-3.47l-0.02 -0.06 0 -0.06c0,-0.05 -0.01,-0.12 -0.03,-0.16 -0.07,-0.14 -0.11,-0.28 -0.11,-0.42 0,-0.24 0.11,-0.45 0.26,-0.62 0.21,-0.24 0.54,-0.31 0.85,-0.31 0.25,0 0.47,0.12 0.63,0.32zm19.26 -17.17c0,-0.67 0.42,-1.04 1.08,-1.04 0.65,0 1.02,0.4 1.02,1.04l0 21.59c0,0.64 -0.37,1.04 -1.02,1.04 -0.66,0 -1.08,-0.37 -1.08,-1.04l0 -21.59zm-0.75 -7.48c0,-0.48 0.18,-0.91 0.52,-1.25 0.34,-0.34 0.76,-0.51 1.24,-0.51 0.49,0 0.91,0.17 1.26,0.51 0.34,0.34 0.51,0.77 0.51,1.25 0,0.48 -0.17,0.9 -0.51,1.25 -0.35,0.34 -0.77,0.52 -1.26,0.52 -0.48,0 -0.9,-0.18 -1.24,-0.52 -0.34,-0.34 -0.52,-0.76 -0.52,-1.25zm29.3 24.95c-0.24,0.44 -0.51,0.87 -0.83,1.28 -0.68,0.91 -1.49,1.69 -2.42,2.35 -0.93,0.65 -1.95,1.16 -3.04,1.51 -1.08,0.35 -2.2,0.53 -3.33,0.53 -1.58,0 -3.1,-0.32 -4.53,-0.98 -1.4,-0.65 -2.64,-1.53 -3.7,-2.66 -1.07,-1.14 -1.9,-2.46 -2.49,-3.92 -0.63,-1.53 -0.92,-3.14 -0.92,-4.8 0,-1.65 0.29,-3.27 0.92,-4.81 0.59,-1.46 1.41,-2.79 2.49,-3.94 1.06,-1.13 2.3,-2.03 3.7,-2.67 1.43,-0.66 2.95,-0.98 4.53,-0.98 1.13,0 2.25,0.17 3.33,0.51 1.06,0.33 2.07,0.81 2.99,1.45 0.91,0.63 1.72,1.39 2.4,2.27 0.34,0.43 0.64,0.89 0.9,1.37l0 -3.95c0,-0.69 0.4,-1.09 1.09,-1.09 0.67,0 1.01,0.44 1.01,1.09l0 18.87c-0.01,1.61 -0.25,3.19 -0.74,4.72 -0.47,1.45 -1.17,2.79 -2.15,3.96 -0.98,1.17 -2.18,2.06 -3.56,2.71 -1.55,0.72 -3.25,0.99 -4.95,0.99 -1.02,0 -2.03,-0.11 -3.02,-0.34 -1,-0.22 -1.97,-0.53 -2.92,-0.93l-0.02 -0.01 -0.02 -0.01c-0.21,-0.12 -0.43,-0.28 -0.59,-0.47 -0.2,-0.25 -0.22,-0.57 -0.14,-0.87l0.01 -0.03 0.01 -0.03c0.11,-0.23 0.27,-0.46 0.5,-0.58 0.29,-0.15 0.64,-0.07 0.92,0.05 0.86,0.32 1.73,0.62 2.61,0.87 0.78,0.22 1.57,0.34 2.38,0.34 1.25,0 2.49,-0.19 3.67,-0.59 1.16,-0.39 2.17,-1.02 3.04,-1.87 0.95,-0.94 1.62,-2.1 2.09,-3.34 0.6,-1.58 0.78,-3.36 0.78,-5.04l0 -0.96zm10.02 -15.24c0.78,-1.02 1.74,-1.86 2.87,-2.51 1.54,-0.88 3.23,-1.27 5,-1.27 1.34,0 2.64,0.25 3.88,0.78 1.18,0.5 2.25,1.2 3.16,2.12 0.91,0.91 1.61,1.97 2.12,3.15 0.53,1.23 0.77,2.54 0.77,3.88l0 13.21c0,0.65 -0.38,1.04 -1.04,1.04 -0.65,0 -1.04,-0.39 -1.04,-1.04l0 -13.3c-0.02,-1.06 -0.23,-2.09 -0.65,-3.06 -0.4,-0.93 -0.96,-1.75 -1.68,-2.46 -0.72,-0.7 -1.55,-1.24 -2.48,-1.63 -0.97,-0.41 -2,-0.59 -3.05,-0.59 -1.05,0 -2.07,0.18 -3.04,0.57 -0.92,0.37 -1.75,0.89 -2.47,1.58 -0.71,0.69 -1.26,1.5 -1.67,2.4 -0.43,0.94 -0.65,1.95 -0.69,2.98l0 13.51c0,0.66 -0.4,1.04 -1.05,1.04 -0.65,0 -1.03,-0.4 -1.03,-1.04l0 -21.59c0,-0.64 0.38,-1.04 1.03,-1.04 0.65,0 1.04,0.39 1.05,1.04l0.01 2.23zm-117.73 -13.04l0 31.36 9.97 0c1.42,0 2.83,-0.18 4.2,-0.56 1.33,-0.36 2.59,-0.89 3.78,-1.58 1.18,-0.67 2.25,-1.5 3.22,-2.44 0.97,-0.95 1.8,-2.01 2.49,-3.17 0.7,-1.16 1.24,-2.41 1.61,-3.71 0.39,-1.36 0.57,-2.75 0.57,-4.15 0,-1.42 -0.18,-2.82 -0.57,-4.19 -0.37,-1.32 -0.91,-2.59 -1.61,-3.76 -0.69,-1.17 -1.53,-2.24 -2.49,-3.19 -0.96,-0.96 -2.04,-1.78 -3.22,-2.46 -1.19,-0.69 -2.45,-1.23 -3.78,-1.6 -1.37,-0.37 -2.78,-0.55 -4.2,-0.55l-9.97 0zm34.29 20.13l18.52 0c-0.15,-1.1 -0.46,-2.16 -0.95,-3.16 -0.53,-1.08 -1.22,-2.06 -2.08,-2.9 -0.84,-0.81 -1.79,-1.45 -2.86,-1.92 -1.07,-0.47 -2.2,-0.69 -3.37,-0.69 -1.16,0 -2.28,0.22 -3.34,0.69 -1.06,0.47 -2.01,1.11 -2.84,1.92 -0.86,0.83 -1.55,1.8 -2.08,2.88 -0.5,1 -0.83,2.08 -1,3.18zm73.35 1.46c0,-1.38 -0.24,-2.73 -0.76,-4.02 -0.48,-1.21 -1.16,-2.32 -2.05,-3.28 -0.87,-0.94 -1.89,-1.68 -3.05,-2.23 -1.17,-0.55 -2.4,-0.81 -3.69,-0.81 -1.31,0 -2.56,0.25 -3.73,0.81 -1.15,0.55 -2.16,1.29 -3.02,2.23 -0.89,0.96 -1.56,2.07 -2.04,3.28 -0.51,1.29 -0.74,2.64 -0.74,4.02 0,1.37 0.23,2.71 0.74,3.99 0.48,1.21 1.16,2.32 2.04,3.28 0.85,0.94 1.86,1.69 3.02,2.23 1.17,0.55 2.43,0.81 3.73,0.81 1.28,0 2.52,-0.27 3.69,-0.81 1.16,-0.54 2.18,-1.29 3.05,-2.23 0.88,-0.96 1.56,-2.07 2.06,-3.29 0.51,-1.27 0.75,-2.6 0.75,-3.98z"/>
 </g>
</svg>
